#!OML:ASF Y:\EmotionMaleHayes\Project 1\Capture day 1\Session 1\Male1.ASF
:FULLY-SPECIFIED
:DEGREES
197
root -2.06676 15.564 1.44422 -25.3807 75.7973 320.054
lowerback 26.461 2.03168 -1.02943
upperback 8.45522 3.37682 5.10757
thorax -5.61197 1.84539 5.16202
lowerneck -18.9796 4.11778 8.36187
upperneck 16.89 3.86565 -2.67581
head 8.62025 2.09083 -1.76641
rclavicle 2.28602e-015 4.96962e-015
rhumerus -33.9716 6.94876 -34.6973
rradius 37.0181
rwrist -10.2322
rhand -25.4862 -29.7114
rfingers 7.12502
rthumb 1.04197 -59.6886
lclavicle 2.28602e-015 4.96962e-015
lhumerus -8.55275 -12.7329 7.10405
lradius 55.2494
lwrist 6.24744
lhand -34.4271 -25.3799
lfingers 7.12502
lthumb -7.59184 4.46385
rfemur -24.1097 6.43035 -9.01054
rtibia 80.3326
rfoot -366.893 0.958955
rtoes 23.2464
lfemur -15.8595 19.778 -34.8164
ltibia 40.4665
lfoot 332.226 -3.0218
ltoes 10.7633
198
root -1.78359 15.5404 1.36188 -25.1028 75.9432 319.67
lowerback 26.1278 1.70622 -1.47366
upperback 8.69595 2.92014 5.77604
thorax -5.18334 1.61918 6.32159
lowerneck -19.3086 4.69577 8.98313
upperneck 16.465 4.57352 -3.34667
head 8.60592 2.37911 -1.99487
rclavicle 3.4191e-014 7.196e-014
rhumerus -34.0341 7.95424 -30.1066
rradius 38.1033
rwrist -11.1942
rhand -25.083 -31.1412
rfingers 7.12502
rthumb 1.43145 -61.1161
lclavicle 3.4191e-014 7.196e-014
lhumerus -7.19011 -10.8025 5.74657
lradius 55.2487
lwrist 6.56449
lhand -34.4655 -26.0144
lfingers 7.12502
lthumb -7.62889 3.82803
rfemur -28.5492 5.18727 -8.91748
rtibia 82.4338
rfoot -367.47 0.575303
rtoes 17.4409
lfemur -14.5752 18.9883 -35.2444
ltibia 38.653
lfoot 332.552 -2.82935
ltoes 10.7505
199
root -1.48127 15.5391 1.25479 -23.4632 76.2447 320.815
lowerback 25.7922 1.04325 -1.87899
upperback 8.8925 2.01418 6.19226
thorax -4.70525 1.1654 7.31112
lowerneck -18.5608 5.3466 9.04236
upperneck 15.7929 5.59942 -3.81314
head 8.32952 2.81432 -2.03667
rclavicle -4.37326e-014 -3.02153e-014
rhumerus -33.5871 9.57977 -25.9906
rradius 39.0603
rwrist -11.78
rhand -26.1676 -31.6884
rfingers 7.12502
rthumb 0.38391 -61.6678
lclavicle -4.37326e-014 -3.02153e-014
lhumerus -6.68029 -9.85655 4.49322
lradius 55.6681
lwrist 5.99824
lhand -34.9466 -25.2632
lfingers 7.12502
lthumb -8.09325 4.56185
rfemur -32.8315 3.76086 -9.03344
rtibia 84.0602
rfoot -368.732 0.442408
rtoes 11.473
lfemur -12.9142 17.7049 -36.2259
ltibia 36.5288
lfoot 333.098 -2.3775
ltoes 10.4207
200
root -1.1641 15.5603 1.11678 -20.089 76.7042 323.799
lowerback 25.5575 0.660232 -1.8494
upperback 9.32903 1.53383 6.09522
thorax -4.03335 0.917195 7.32394
lowerneck -19.378 5.89483 10.5426
upperneck 15.7742 6.03137 -4.77288
head 8.57593 2.99723 -2.52705
rclavicle 2.80286e-014 -3.97569e-015
rhumerus -34.4638 9.82908 -22.5487
rradius 40.1301
rwrist -11.9993
rhand -27.3643 -32.3144
rfingers 7.12502
rthumb -0.771957 -62.2927
lclavicle 2.80286e-014 -3.97569e-015
lhumerus -4.20478 -8.52428 3.06396
lradius 56.1454
lwrist 6.32792
lhand -34.2944 -26.3576
lfingers 7.12502
lthumb -7.46372 3.49077
rfemur -36.8135 2.15198 -9.56875
rtibia 85.1494
rfoot -369.765 0.299054
rtoes 10.1254
lfemur -10.9254 16.1691 -37.8986
ltibia 33.8454
lfoot 334.345 -1.4647
ltoes 8.99088
201
root -0.836774 15.6029 0.966259 -15.1323 76.8447 328.489
lowerback 25.6318 0.0482244 -2.51114
upperback 9.43033 0.626125 6.40541
thorax -3.81815 0.451882 8.33681
lowerneck -18.3168 6.477 9.97928
upperneck 15.3071 7.18901 -5.30021
head 8.32483 3.46464 -2.4771
rclavicle 1.09332e-014 3.18055e-015
rhumerus -33.875 11.8143 -18.7222
rradius 41.3122
rwrist -12.5726
rhand -28.7304 -33.1289
rfingers 7.12502
rthumb -2.09137 -63.0984
lclavicle 1.09332e-014 3.18055e-015
lhumerus -4.17708 -8.91627 2.77956
lradius 56.7837
lwrist 4.42608
lhand -35.8823 -25.6186
lfingers 7.12502
lthumb -8.99623 4.1696
rfemur -40.811 0.85348 -9.89504
rtibia 85.7748
rfoot -370.851 -0.457499
rtoes 12.4239
lfemur -8.83714 15.0927 -39.7078
ltibia 30.8674
lfoot 336.127 -0.525445
ltoes 5.90899
202
root -0.499023 15.6587 0.806475 -11.2622 76.8128 332.101
lowerback 25.7694 -0.343572 -2.36409
upperback 9.81323 0.188987 6.4896
thorax -3.38539 0.226696 8.47068
lowerneck -18.8868 6.97376 10.3687
upperneck 15.3062 7.80843 -5.85709
head 8.51305 3.71112 -2.62661
rclavicle -6.16232e-015 3.06128e-014
rhumerus -34.256 12.2799 -15.6601
rradius 42.4395
rwrist -12.9493
rhand -28.5719 -33.859
rfingers 7.12502
rthumb -1.93824 -63.83
lclavicle -6.16232e-015 3.06128e-014
lhumerus -2.40732 -9.25383 2.30382
lradius 57.2134
lwrist 3.54524
lhand -36.6263 -25.295
lfingers 7.12502
lthumb -9.71409 4.46097
rfemur -44.6094 -0.280767 -9.4429
rtibia 85.8759
rfoot -372.307 -0.510382
rtoes 9.08694
lfemur -6.73319 14.1973 -41.1588
ltibia 27.8601
lfoot 338.43 -0.333228
ltoes 4.73337
203
root -0.152855 15.728 0.647318 -7.43292 76.9755 335.657
lowerback 26.0262 -0.821539 -2.06153
upperback 10.0655 -0.323393 6.51732
thorax -3.14686 -0.023976 8.47313
lowerneck -19.295 7.37386 10.681
upperneck 15.2999 8.30491 -6.27103
head 8.65692 3.91144 -2.73415
rclavicle 9.93923e-015 -1.55052e-014
rhumerus -34.7662 12.9099 -13.3466
rradius 43.0236
rwrist -12.4335
rhand -28.6668 -33.8123
rfingers 7.12502
rthumb -2.02993 -63.7824
lclavicle 9.93923e-015 -1.55052e-014
lhumerus -0.406949 -10.195 1.81289
lradius 58.0408
lwrist 4.23886
lhand -36.8507 -25.3572
lfingers 7.12502
lthumb -9.9306 4.3886
rfemur -48.0428 -1.64099 -8.64692
rtibia 85.413
rfoot -373.331 -0.91581
rtoes 5.35069
lfemur -4.65101 13.2579 -42.5704
ltibia 24.9913
lfoot 341.507 -0.5663
ltoes 5.74119
204
root 0.19416 15.8006 0.491998 -3.20103 77.0644 339.442
lowerback 26.1076 -1.32613 -1.76062
upperback 10.2452 -0.885497 6.46258
thorax -2.90278 -0.299244 8.39013
lowerneck -19.5069 7.76714 11.0382
upperneck 15.1954 8.79372 -6.67304
head 8.73837 4.11502 -2.8488
rclavicle -3.57812e-015 8.66701e-014
rhumerus -35.2121 13.1379 -11.5798
rradius 43.8452
rwrist -12.792
rhand -29.4249 -34.7656
rfingers 7.12502
rthumb -2.76209 -64.7274
lclavicle -3.57812e-015 8.66701e-014
lhumerus 1.41821 -11.1444 1.5223
lradius 59.3147
lwrist 5.63271
lhand -36.597 -25.5095
lfingers 7.12502
lthumb -9.68579 4.2478
rfemur -51.4762 -3.10314 -7.55558
rtibia 84.4683
rfoot -373.958 -1.23058
rtoes 3.10474
lfemur -2.8185 12.5462 -43.9672
ltibia 22.2169
lfoot 345.201 -1.0448
ltoes 5.63761
205
root 0.545078 15.8695 0.341656 0.516974 76.9619 342.411
lowerback 26.1641 -1.72526 -1.52824
upperback 10.1697 -1.32264 6.64023
thorax -2.94438 -0.511625 8.58274
lowerneck -19.6491 8.08208 11.168
upperneck 15.1838 9.25298 -7.07799
head 8.82964 4.29245 -2.93365
rclavicle -8.34896e-015 -3.91606e-014
rhumerus -35.6012 13.0279 -9.93308
rradius 45.2959
rwrist -14.2532
rhand -28.8484 -34.7031
rfingers 7.12502
rthumb -2.20533 -64.6714
lclavicle -8.34896e-015 -3.91606e-014
lhumerus 2.63422 -12.5624 2.10614
lradius 60.6594
lwrist 4.50569
lhand -37.5794 -25.0159
lfingers 7.12502
lthumb -10.6336 4.69508
rfemur -55.0858 -4.43712 -5.95318
rtibia 83.1319
rfoot -374.595 -1.2779
rtoes 1.92714
lfemur -1.33005 12.1333 -45.0746
ltibia 19.4522
lfoot 349.567 -1.72914
ltoes 6.36773
206
root 0.909539 15.9408 0.201927 3.38098 76.803 344.528
lowerback 25.96 -2.18448 -1.08836
upperback 10.2392 -1.8015 6.71127
thorax -2.70738 -0.746546 8.52329
lowerneck -19.8009 8.43929 11.5052
upperneck 15.0046 9.68593 -7.41115
head 8.87199 4.47667 -3.0288
rclavicle -4.81059e-014 -1.26825e-013
rhumerus -35.7558 11.9949 -8.84715
rradius 47.0998
rwrist -16.9695
rhand -27.5004 -32.4653
rfingers 7.12502
rthumb -0.903385 -62.4432
lclavicle -4.81059e-014 -1.26825e-013
lhumerus 3.77923 -13.2733 2.91743
lradius 62.8176
lwrist 5.23866
lhand -35.4259 -27.2801
lfingers 7.12502
lthumb -8.55582 2.52654
rfemur -58.4251 -5.54758 -3.78487
rtibia 81.3903
rfoot -375.326 -1.2164
rtoes -0.17981
lfemur 0.202088 12.0939 -45.7019
ltibia 16.6881
lfoot 354.787 -2.31408
ltoes 8.31707
207
root 1.28491 16.019 0.0761908 4.95208 76.3999 345.523
lowerback 26.0079 -2.57517 -0.642508
upperback 10.3038 -2.18195 6.7965
thorax -2.61521 -0.927807 8.46248
lowerneck -19.8616 8.87054 11.7824
upperneck 14.8804 10.2478 -7.7278
head 8.92962 4.72118 -3.08926
rclavicle -1.11319e-014 5.1684e-015
rhumerus -35.781 11.169 -8.39045
rradius 48.4733
rwrist -18.0562
rhand -27.4555 -31.0771
rfingers 7.12502
rthumb -0.860038 -61.0551
lclavicle -1.11319e-014 5.1684e-015
lhumerus 4.52734 -14.5644 4.03054
lradius 64.8487
lwrist 4.13546
lhand -34.8112 -28.3405
lfingers 7.12502
lthumb -7.96251 1.48957
rfemur -61.3146 -6.13242 -0.948092
rtibia 79.1986
rfoot -375.934 -1.23393
rtoes -4.10996
lfemur 1.86545 12.4036 -45.754
ltibia 14.0304
lfoot 360.388 -2.83441
ltoes 9.79628
208
root 1.66629 16.1028 -0.0415007 5.24281 75.8896 345.496
lowerback 26.5468 -2.95383 -0.253355
upperback 10.3055 -2.51791 7.03747
thorax -2.82277 -1.08077 8.6372
lowerneck -19.837 9.45875 11.7669
upperneck 14.9942 11.151 -8.12075
head 9.08182 5.10091 -3.07477
rclavicle 1.23246e-014 5.38706e-014
rhumerus -35.6685 11.2113 -8.50487
rradius 49.5185
rwrist -17.5312
rhand -30.6365 -30.7042
rfingers 7.12502
rthumb -3.93208 -60.6477
lclavicle 1.23246e-014 5.38706e-014
lhumerus 4.8722 -15.8787 5.82405
lradius 66.7669
lwrist 3.31773
lhand -34.0783 -29.4087
lfingers 7.12502
lthumb -7.25518 0.446967
rfemur -63.4879 -6.29083 2.36581
rtibia 76.6308
rfoot -376.583 -1.11474
rtoes -8.3866
lfemur 3.7156 12.9541 -45.2966
ltibia 11.6827
lfoot 365.35 -3.41543
ltoes 11.014
209
root 2.056 16.181 -0.158893 5.52401 75.2385 345.663
lowerback 27.2892 -3.26355 0.0328821
upperback 10.3078 -2.78158 7.18739
thorax -3.13571 -1.1959 8.76854
lowerneck -20.0783 10.1777 12.1437
upperneck 15.5925 12.1436 -8.59353
head 9.49414 5.52194 -3.11607
rclavicle -4.96962e-014 1.21259e-014
rhumerus -35.2196 9.78475 -8.46066
rradius 52.3466
rwrist -19.4837
rhand -27.8159 -31.0338
rfingers 7.12502
rthumb -1.20807 -61.0101
lclavicle -4.96962e-014 1.21259e-014
lhumerus 5.39018 -17.5427 7.75045
lradius 68.407
lwrist 2.93278
lhand -33.7385 -30.1392
lfingers 7.12502
lthumb -6.92715 -0.272525
rfemur -65.1006 -6.24941 5.75174
rtibia 74.0098
rfoot -377.042 0.532268
rtoes -5.60573
lfemur 5.59066 14.0379 -44.7098
ltibia 9.80907
lfoot 368.577 -4.9286
ltoes 8.6942
210
root 2.45709 16.2448 -0.26985 5.71405 74.2403 345.699
lowerback 27.8124 -3.49891 0.129541
upperback 10.3386 -3.02447 7.24353
thorax -3.30992 -1.312 8.88589
lowerneck -20.1735 10.8258 12.4993
upperneck 16.1096 13.0324 -8.91858
head 9.84066 5.90948 -3.1189
rclavicle -1.25234e-014 -3.37934e-015
rhumerus -34.2622 8.39218 -8.78243
rradius 54.6757
rwrist -21.1524
rhand -26.3234 -30.6856
rfingers 7.12502
rthumb 0.233389 -60.6652
lclavicle -1.25234e-014 -3.37934e-015
lhumerus 5.77472 -19.4501 9.93036
lradius 69.7382
lwrist 3.27238
lhand -33.6486 -30.0275
lfingers 7.12502
lthumb -6.8404 -0.157994
rfemur -66.4139 -5.93379 9.34953
rtibia 71.392
rfoot -376.092 3.05193
rtoes -9.66258
lfemur 7.11148 15.3823 -44.0691
ltibia 8.75352
lfoot 369.857 -6.83576
ltoes 4.26944
211
root 2.86167 16.284 -0.3767 6.13928 73.0732 345.698
lowerback 27.8216 -3.62433 0.319866
upperback 10.3299 -3.1641 7.10666
thorax -3.32568 -1.38105 8.65799
lowerneck -19.8896 11.3224 13.1625
upperneck 16.0844 13.6541 -9.34622
head 9.93738 6.1984 -3.26392
rclavicle -2.95195e-014 -9.59136e-014
rhumerus -34.0946 7.38228 -9.80528
rradius 57.4006
rwrist -22.4084
rhand -26.1819 -30.7559
rfingers 7.12502
rthumb 0.37003 -60.7353
lclavicle -2.95195e-014 -9.59136e-014
lhumerus 6.53942 -21.3703 12.2348
lradius 70.648
lwrist 3.52389
lhand -33.5241 -29.4636
lfingers 7.12502
lthumb -6.72018 0.409772
rfemur -67.6703 -5.5837 13.0183
rtibia 69.0391
rfoot -375.012 6.65955
rtoes -10.9448
lfemur 8.01596 15.9721 -43.7201
ltibia 8.79178
lfoot 369.98 -7.52841
ltoes 8.57861
